<svg height="64" viewBox="0 0 64 64" width="64" xmlns="http://www.w3.org/2000/svg"><g fill="#f00" transform="translate(12 7)"><path d="m38 0h-21.1714c-.5307 0-1.0395.2109-1.4145.5859l-14.8282 14.8282c-.375.375-.5859.8838-.5859 1.4145v31.1714c0 1.0996.8999 2 2 2h36c1.1045 0 2-.8955 2-2v-46c0-1.1045-.8955-2-2-2zm-3 45h-30v-26.7082l-3.1484-.9324c-.3412-.109-.2185-.3594-.2185-.3594h14.3669c.5522 0 1-.4478 1-1v-14.3659s.2509-.1096.3599.231l.9316 3.1349h16.7085z"/><path d="m21 14h10v3h-10z"/><path d="m16 24h15v3h-15z"/><path d="m9 24h5v3h-5z"/><path d="m16 30h15v3h-15z"/><path d="m9 30h5v3h-5z"/><path d="m9 36h5v3h-5z"/><path d="m16 36h15v3h-15z"/></g></svg>