<svg height="24" viewBox="0 0 24 24" width="24" xmlns="http://www.w3.org/2000/svg"><path d="m10.343325.9377125c-2.880525-.416925-5.7778875-.416925-8.6584125 0-.74115.110175-1.3099125.7993875-1.3099125 1.4989875v15.1266c.0000375.6996375.5970375 1.388775 1.3381875 1.499025 2.880525.416925 5.7496125.416925 8.6301375 0 .741225-.1102125 1.281675-.7994625 1.281675-1.499025 0-5.0422125 0-10.0843875 0-15.1266 0-.6996-.54045-1.3888125-1.281675-1.4989875zm-4.343325 17.3685375c-.54885 0-.99375-.4449-.99375-.99375s.4449-.99375.99375-.99375.99375.4449.99375.99375-.4449.99375-.99375.99375zm4.125-3.05625h-8.25v-12h8.25z" fill="#00f" transform="translate(6 2)"/></svg>