<svg height="24" viewBox="0 0 24 24" width="24" xmlns="http://www.w3.org/2000/svg"><g fill="#00f" transform="translate(4.5 2.625)"><path d="m14.25 0h-7.939275c-.1990125 0-.3898125.0790875-.5304375.2197125l-5.560575 5.560575c-.140625.140625-.2197125.331425-.2197125.5304375v11.689275c0 .41235.3374625.75.75.75h13.5c.4141875 0 .75-.3358125.75-.75v-17.25c0-.4141875-.3358125-.75-.75-.75zm-1.125 16.875h-11.25v-10.015575l-1.18065-.34965c-.12795-.040875-.0819375-.134775-.0819375-.134775h5.3875875c.207075 0 .375-.167925.375-.375v-5.3872125s.0940875-.0411.1349625.086625l.34935 1.1755875h6.2656875z"/><path d="m3.9743625 9.5278125c-.23205.1945125-.2878875.5284875-.132675.7879875l2.626425 4.383225c.1108875.1849875.3105.2985375.52605.2992125h.00225c.21465 0 .4143-.1120125.5260875-.2959125l4.01265-6.6417c.1654125-.271875.0962625-.6250125-.1592625-.8143875-.256425-.1894125-.6139125-.15285-.825975.0842625l-3.6085125 4.0816125-2.1682125-1.87815c-.229275-.198225-.56775-.200925-.798825-.00615z"/></g></svg>