<svg height="24" viewBox="0 0 24 24" width="24" xmlns="http://www.w3.org/2000/svg"><g fill="#00f" transform="translate(4.5 2.625)"><path d="m14.25 0h-7.939275c-.1990125 0-.3898125.0790875-.5304375.2197125l-5.560575 5.560575c-.140625.140625-.2197125.331425-.2197125.5304375v11.689275c0 .41235.3374625.75.75.75h13.5c.4141875 0 .75-.3358125.75-.75v-17.25c0-.4141875-.3358125-.75-.75-.75zm-1.125 16.875h-11.25v-10.015575l-1.18065-.34965c-.12795-.040875-.0819375-.134775-.0819375-.134775h5.3875875c.207075 0 .375-.167925.375-.375v-5.3872125s.0940875-.0411.1349625.086625l.34935 1.1755875h6.2656875z"/><path d="m7.875 5.25h3.75v1.125h-3.75z"/><path d="m6 9h5.625v1.125h-5.625z"/><path d="m3.375 9h1.875v1.125h-1.875z"/><path d="m6 11.25h5.625v1.125h-5.625z"/><path d="m3.375 11.25h1.875v1.125h-1.875z"/><path d="m3.375 13.5h1.875v1.125h-1.875z"/><path d="m6 13.5h5.625v1.125h-5.625z"/></g></svg>