<svg height="64" viewBox="0 0 64 64" width="64" xmlns="http://www.w3.org/2000/svg"><path d="m43.5822 7.8339c-7.6814-1.1118-15.4077-1.1118-23.0891 0-1.9764.2938-3.4931 2.1317-3.4931 3.9973v40.3376c.0001 1.8657 1.5921 3.7034 3.5685 3.9974 7.6814 1.1118 15.3323 1.1118 23.0137 0 1.9766-.2939 3.4178-2.1319 3.4178-3.9974 0-13.4459 0-26.8917 0-40.3376 0-1.8656-1.4412-3.7035-3.4178-3.9973zm-11.5822 46.3161c-1.4636 0-2.65-1.1864-2.65-2.65s1.1864-2.65 2.65-2.65 2.65 1.1864 2.65 2.65-1.1864 2.65-2.65 2.65zm11-8.15h-22v-32h22z" fill="#f00"/></svg>